<?xml version="1.0" encoding="UTF-8" standalone="no"?>
<!DOCTYPE svg PUBLIC "-//W3C//DTD SVG 1.1//EN"
 "http://www.w3.org/Graphics/SVG/1.1/DTD/svg11.dtd">
<!-- Generated by graphviz version 6.0.1 (20220911.1526)
 -->
<!-- Title: pprof_1 Pages: 1 -->
<svg width="100%" height="100%" xmlns="http://www.w3.org/2000/svg" xmlns:xlink="http://www.w3.org/1999/xlink">
<script type="text/ecmascript"><![CDATA[
/**
 *  SVGPan library 1.2.2
 * ======================
 *
 * Given an unique existing element with id "viewport" (or when missing, the
 * first g-element), including the library into any SVG adds the following
 * capabilities:
 *
 *  - Mouse panning
 *  - Mouse zooming (using the wheel)
 *  - Object dragging
 *
 * You can configure the behaviour of the pan/zoom/drag with the variables
 * listed in the CONFIGURATION section of this file.
 *
 * Known issues:
 *
 *  - Zooming (while panning) on Safari has still some issues
 *
 * Releases:
 *
 * 1.2.2, Tue Aug 30 17:21:56 CEST 2011, Andrea Leofreddi
 *	- Fixed viewBox on root tag (#7)
 *	- Improved zoom speed (#2)
 *
 * 1.2.1, Mon Jul  4 00:33:18 CEST 2011, Andrea Leofreddi
 *	- Fixed a regression with mouse wheel (now working on Firefox 5)
 *	- Working with viewBox attribute (#4)
 *	- Added "use strict;" and fixed resulting warnings (#5)
 *	- Added configuration variables, dragging is disabled by default (#3)
 *
 * 1.2, Sat Mar 20 08:42:50 GMT 2010, Zeng Xiaohui
 *	Fixed a bug with browser mouse handler interaction
 *
 * 1.1, Wed Feb  3 17:39:33 GMT 2010, Zeng Xiaohui
 *	Updated the zoom code to support the mouse wheel on Safari/Chrome
 *
 * 1.0, Andrea Leofreddi
 *	First release
 *
 * This code is licensed under the following BSD license:
 *
 * Copyright 2009-2017 Andrea Leofreddi <a.leofreddi@vleo.net>. All rights reserved.
 *
 * Redistribution and use in source and binary forms, with or without modification, are
 * permitted provided that the following conditions are met:
 *
 *    1. Redistributions of source code must retain the above copyright
 *       notice, this list of conditions and the following disclaimer.
 *    2. Redistributions in binary form must reproduce the above copyright
 *       notice, this list of conditions and the following disclaimer in the
 *       documentation and/or other materials provided with the distribution.
 *    3. Neither the name of the copyright holder nor the names of its
 *       contributors may be used to endorse or promote products derived from
 *       this software without specific prior written permission.
 *
 * THIS SOFTWARE IS PROVIDED BY COPYRIGHT HOLDERS AND CONTRIBUTORS ''AS IS'' AND ANY EXPRESS
 * OR IMPLIED WARRANTIES, INCLUDING, BUT NOT LIMITED TO, THE IMPLIED WARRANTIES OF MERCHANTABILITY
 * AND FITNESS FOR A PARTICULAR PURPOSE ARE DISCLAIMED. IN NO EVENT SHALL COPYRIGHT HOLDERS OR
 * CONTRIBUTORS BE LIABLE FOR ANY DIRECT, INDIRECT, INCIDENTAL, SPECIAL, EXEMPLARY, OR
 * CONSEQUENTIAL DAMAGES (INCLUDING, BUT NOT LIMITED TO, PROCUREMENT OF SUBSTITUTE GOODS OR
 * SERVICES; LOSS OF USE, DATA, OR PROFITS; OR BUSINESS INTERRUPTION) HOWEVER CAUSED AND ON
 * ANY THEORY OF LIABILITY, WHETHER IN CONTRACT, STRICT LIABILITY, OR TORT (INCLUDING
 * NEGLIGENCE OR OTHERWISE) ARISING IN ANY WAY OUT OF THE USE OF THIS SOFTWARE, EVEN IF
 * ADVISED OF THE POSSIBILITY OF SUCH DAMAGE.
 *
 * The views and conclusions contained in the software and documentation are those of the
 * authors and should not be interpreted as representing official policies, either expressed
 * or implied, of Andrea Leofreddi.
 */

"use strict";

/// CONFIGURATION
/// ====>

var enablePan = 1; // 1 or 0: enable or disable panning (default enabled)
var enableZoom = 1; // 1 or 0: enable or disable zooming (default enabled)
var enableDrag = 0; // 1 or 0: enable or disable dragging (default disabled)
var zoomScale = 0.2; // Zoom sensitivity

/// <====
/// END OF CONFIGURATION

var root = document.documentElement;

var state = 'none', svgRoot = null, stateTarget, stateOrigin, stateTf;

setupHandlers(root);

/**
 * Register handlers
 */
function setupHandlers(root){
	setAttributes(root, {
		"onmouseup" : "handleMouseUp(evt)",
		"onmousedown" : "handleMouseDown(evt)",
		"onmousemove" : "handleMouseMove(evt)",
		//"onmouseout" : "handleMouseUp(evt)", // Decomment this to stop the pan functionality when dragging out of the SVG element
	});

	if(navigator.userAgent.toLowerCase().indexOf('webkit') >= 0)
		window.addEventListener('mousewheel', handleMouseWheel, false); // Chrome/Safari
	else
		window.addEventListener('DOMMouseScroll', handleMouseWheel, false); // Others
}

/**
 * Retrieves the root element for SVG manipulation. The element is then cached into the svgRoot global variable.
 */
function getRoot(root) {
	if(svgRoot == null) {
		var r = root.getElementById("viewport") ? root.getElementById("viewport") : root.documentElement, t = r;

		while(t != root) {
			if(t.getAttribute("viewBox")) {
				setCTM(r, t.getCTM());

				t.removeAttribute("viewBox");
			}

			t = t.parentNode;
		}

		svgRoot = r;
	}

	return svgRoot;
}

/**
 * Instance an SVGPoint object with given event coordinates.
 */
function getEventPoint(evt) {
	var p = root.createSVGPoint();

	p.x = evt.clientX;
	p.y = evt.clientY;

	return p;
}

/**
 * Sets the current transform matrix of an element.
 */
function setCTM(element, matrix) {
	var s = "matrix(" + matrix.a + "," + matrix.b + "," + matrix.c + "," + matrix.d + "," + matrix.e + "," + matrix.f + ")";

	element.setAttribute("transform", s);
}

/**
 * Dumps a matrix to a string (useful for debug).
 */
function dumpMatrix(matrix) {
	var s = "[ " + matrix.a + ", " + matrix.c + ", " + matrix.e + "\n  " + matrix.b + ", " + matrix.d + ", " + matrix.f + "\n  0, 0, 1 ]";

	return s;
}

/**
 * Sets attributes of an element.
 */
function setAttributes(element, attributes){
	for (var i in attributes)
		element.setAttributeNS(null, i, attributes[i]);
}

/**
 * Handle mouse wheel event.
 */
function handleMouseWheel(evt) {
	if(!enableZoom)
		return;

	if(evt.preventDefault)
		evt.preventDefault();

	evt.returnValue = false;

	var svgDoc = evt.target.ownerDocument;

	var delta;

	if(evt.wheelDelta)
		delta = evt.wheelDelta / 360; // Chrome/Safari
	else
		delta = evt.detail / -9; // Mozilla

	var z = Math.pow(1 + zoomScale, delta);

	var g = getRoot(svgDoc);
	
	var p = getEventPoint(evt);

	p = p.matrixTransform(g.getCTM().inverse());

	// Compute new scale matrix in current mouse position
	var k = root.createSVGMatrix().translate(p.x, p.y).scale(z).translate(-p.x, -p.y);

        setCTM(g, g.getCTM().multiply(k));

	if(typeof(stateTf) == "undefined")
		stateTf = g.getCTM().inverse();

	stateTf = stateTf.multiply(k.inverse());
}

/**
 * Handle mouse move event.
 */
function handleMouseMove(evt) {
	if(evt.preventDefault)
		evt.preventDefault();

	evt.returnValue = false;

	var svgDoc = evt.target.ownerDocument;

	var g = getRoot(svgDoc);

	if(state == 'pan' && enablePan) {
		// Pan mode
		var p = getEventPoint(evt).matrixTransform(stateTf);

		setCTM(g, stateTf.inverse().translate(p.x - stateOrigin.x, p.y - stateOrigin.y));
	} else if(state == 'drag' && enableDrag) {
		// Drag mode
		var p = getEventPoint(evt).matrixTransform(g.getCTM().inverse());

		setCTM(stateTarget, root.createSVGMatrix().translate(p.x - stateOrigin.x, p.y - stateOrigin.y).multiply(g.getCTM().inverse()).multiply(stateTarget.getCTM()));

		stateOrigin = p;
	}
}

/**
 * Handle click event.
 */
function handleMouseDown(evt) {
	if(evt.preventDefault)
		evt.preventDefault();

	evt.returnValue = false;

	var svgDoc = evt.target.ownerDocument;

	var g = getRoot(svgDoc);

	if(
		evt.target.tagName == "svg"
		|| !enableDrag // Pan anyway when drag is disabled and the user clicked on an element
	) {
		// Pan mode
		state = 'pan';

		stateTf = g.getCTM().inverse();

		stateOrigin = getEventPoint(evt).matrixTransform(stateTf);
	} else {
		// Drag mode
		state = 'drag';

		stateTarget = evt.target;

		stateTf = g.getCTM().inverse();

		stateOrigin = getEventPoint(evt).matrixTransform(stateTf);
	}
}

/**
 * Handle mouse button release event.
 */
function handleMouseUp(evt) {
	if(evt.preventDefault)
		evt.preventDefault();

	evt.returnValue = false;

	var svgDoc = evt.target.ownerDocument;

	if(state == 'pan' || state == 'drag') {
		// Quit pan mode
		state = '';
	}
}
]]></script><g id="viewport" transform="scale(0.5,0.5) translate(0,0)"><g id="graph0" class="graph" transform="scale(1 1) rotate(0) translate(4 1630)">
<title>pprof_1</title>
<polygon fill="white" stroke="none" points="-4,4 -4,-1630 885.5,-1630 885.5,4 -4,4"/>
<g id="clust1" class="cluster">
<title>cluster_L</title>
<polygon fill="none" stroke="black" points="8,-1467 8,-1618 482,-1618 482,-1467 8,-1467"/>
</g>
<!-- File: pprof_1 -->
<g id="node1" class="node">
<title>File: pprof_1</title>
<g id="a_node1"><a xlink:title="pprof_1">
<polygon fill="#f8f8f8" stroke="black" points="473.5,-1610 16.5,-1610 16.5,-1475 473.5,-1475 473.5,-1610"/>
<text text-anchor="start" x="24.5" y="-1593.2" font-family="Times,serif" font-size="16.00">File: pprof_1</text>
<text text-anchor="start" x="24.5" y="-1575.2" font-family="Times,serif" font-size="16.00">Type: alloc_objects</text>
<text text-anchor="start" x="24.5" y="-1557.2" font-family="Times,serif" font-size="16.00">Time: Sep 16, 2022 at 10:53am (+06)</text>
<text text-anchor="start" x="24.5" y="-1539.2" font-family="Times,serif" font-size="16.00">Showing nodes accounting for 11026367, 98.78% of 11162907 total</text>
<text text-anchor="start" x="24.5" y="-1521.2" font-family="Times,serif" font-size="16.00">Dropped 63 nodes (cum &lt;= 55814)</text>
<text text-anchor="start" x="24.5" y="-1484.2" font-family="Times,serif" font-size="16.00">See https://git.io/JfYMW for how to read the graph</text>
</a>
</g>
</g>
<!-- N1 -->
<g id="node1" class="node">
<title>N1</title>
<g id="a_node1"><a xlink:title="fmt.(*pp).printValue (8549682)">
<polygon fill="#edd7d5" stroke="#b20d00" points="782,-537 692,-537 692,-493 782,-493 782,-537"/>
<text text-anchor="middle" x="737" y="-526.6" font-family="Times,serif" font-size="8.00">fmt</text>
<text text-anchor="middle" x="737" y="-517.6" font-family="Times,serif" font-size="8.00">(*pp)</text>
<text text-anchor="middle" x="737" y="-508.6" font-family="Times,serif" font-size="8.00">printValue</text>
<text text-anchor="middle" x="737" y="-499.6" font-family="Times,serif" font-size="8.00">0 of 8549682 (76.59%)</text>
</a>
</g>
</g>
<!-- N9 -->
<g id="node9" class="node">
<title>N9</title>
<g id="a_node9"><a xlink:title="fmt.(*buffer).writeString (65537)">
<polygon fill="#ededec" stroke="#b2b1ad" points="353.5,-425 276.5,-425 276.5,-373 353.5,-373 353.5,-425"/>
<text text-anchor="middle" x="315" y="-413" font-family="Times,serif" font-size="10.00">fmt</text>
<text text-anchor="middle" x="315" y="-402" font-family="Times,serif" font-size="10.00">(*buffer)</text>
<text text-anchor="middle" x="315" y="-391" font-family="Times,serif" font-size="10.00">writeString</text>
<text text-anchor="middle" x="315" y="-380" font-family="Times,serif" font-size="10.00">65537 (0.59%)</text>
</a>
</g>
</g>
<!-- N1&#45;&gt;N9 -->
<g id="edge32" class="edge">
<title>N1&#45;&gt;N9</title>
<g id="a_edge32"><a xlink:title="fmt.(*pp).printValue &#45;&gt; fmt.(*buffer).writeString (65537)">
<path fill="none" stroke="#b2b1ad" d="M691.61,-510.58C640.55,-505.9 555.54,-495.63 485,-475 442.27,-462.5 396.2,-441.68 362.81,-425.14"/>
<polygon fill="#b2b1ad" stroke="#b2b1ad" points="364.25,-421.95 353.74,-420.6 361.12,-428.21 364.25,-421.95"/>
</a>
</g>
<g id="a_edge32&#45;label"><a xlink:title="fmt.(*pp).printValue &#45;&gt; fmt.(*buffer).writeString (65537)">
<text text-anchor="middle" x="507" y="-463.8" font-family="Times,serif" font-size="14.00"> 65537</text>
<text text-anchor="middle" x="507" y="-448.8" font-family="Times,serif" font-size="14.00"> (inline)</text>
</a>
</g>
</g>
<!-- N13 -->
<g id="node13" class="node">
<title>N13</title>
<g id="a_node13"><a xlink:title="fmt.(*pp).handleMethods (1040447)">
<polygon fill="#ede7e2" stroke="#b2895f" points="500,-421 414,-421 414,-377 500,-377 500,-421"/>
<text text-anchor="middle" x="457" y="-410.6" font-family="Times,serif" font-size="8.00">fmt</text>
<text text-anchor="middle" x="457" y="-401.6" font-family="Times,serif" font-size="8.00">(*pp)</text>
<text text-anchor="middle" x="457" y="-392.6" font-family="Times,serif" font-size="8.00">handleMethods</text>
<text text-anchor="middle" x="457" y="-383.6" font-family="Times,serif" font-size="8.00">0 of 1040447 (9.32%)</text>
</a>
</g>
</g>
<!-- N1&#45;&gt;N13 -->
<g id="edge27" class="edge">
<title>N1&#45;&gt;N13</title>
<g id="a_edge27"><a xlink:title="fmt.(*pp).printValue &#45;&gt; fmt.(*pp).handleMethods (1040447)">
<path fill="none" stroke="#b2895f" d="M691.99,-504.59C663.38,-497.91 625.86,-487.86 594,-475 560.79,-461.6 525.38,-442.06 498.89,-426.29"/>
<polygon fill="#b2895f" stroke="#b2895f" points="500.63,-423.25 490.26,-421.1 497.02,-429.25 500.63,-423.25"/>
</a>
</g>
<g id="a_edge27&#45;label"><a xlink:title="fmt.(*pp).printValue &#45;&gt; fmt.(*pp).handleMethods (1040447)">
<text text-anchor="middle" x="620" y="-456.3" font-family="Times,serif" font-size="14.00"> 1040447</text>
</a>
</g>
</g>
<!-- N19 -->
<g id="node19" class="node">
<title>N19</title>
<g id="a_node19"><a xlink:title="reflect.(*rtype).Field (2392100)">
<polygon fill="#edded5" stroke="#b24200" points="656,-421 566,-421 566,-377 656,-377 656,-421"/>
<text text-anchor="middle" x="611" y="-410.6" font-family="Times,serif" font-size="8.00">reflect</text>
<text text-anchor="middle" x="611" y="-401.6" font-family="Times,serif" font-size="8.00">(*rtype)</text>
<text text-anchor="middle" x="611" y="-392.6" font-family="Times,serif" font-size="8.00">Field</text>
<text text-anchor="middle" x="611" y="-383.6" font-family="Times,serif" font-size="8.00">0 of 2392100 (21.43%)</text>
</a>
</g>
</g>
<!-- N1&#45;&gt;N19 -->
<g id="edge24" class="edge">
<title>N1&#45;&gt;N19</title>
<g id="a_edge24"><a xlink:title="fmt.(*pp).printValue &#45;&gt; reflect.(*rtype).Field (2392100)">
<path fill="none" stroke="#b24200" stroke-width="2" d="M704.14,-492.85C696.32,-487.34 688.16,-481.21 681,-475 664.76,-460.93 648.28,-443.46 635.39,-428.92"/>
<polygon fill="#b24200" stroke="#b24200" stroke-width="2" points="637.84,-426.41 628.63,-421.19 632.58,-431.02 637.84,-426.41"/>
</a>
</g>
<g id="a_edge24&#45;label"><a xlink:title="fmt.(*pp).printValue &#45;&gt; reflect.(*rtype).Field (2392100)">
<text text-anchor="middle" x="707" y="-456.3" font-family="Times,serif" font-size="14.00"> 2392100</text>
</a>
</g>
</g>
<!-- N20 -->
<g id="node20" class="node">
<title>N20</title>
<g id="a_node20"><a xlink:title="reflect.Value.Interface (4998347)">
<polygon fill="#eddad5" stroke="#b22600" points="782,-421 692,-421 692,-377 782,-377 782,-421"/>
<text text-anchor="middle" x="737" y="-410.6" font-family="Times,serif" font-size="8.00">reflect</text>
<text text-anchor="middle" x="737" y="-401.6" font-family="Times,serif" font-size="8.00">Value</text>
<text text-anchor="middle" x="737" y="-392.6" font-family="Times,serif" font-size="8.00">Interface</text>
<text text-anchor="middle" x="737" y="-383.6" font-family="Times,serif" font-size="8.00">0 of 4998347 (44.78%)</text>
</a>
</g>
</g>
<!-- N1&#45;&gt;N20 -->
<g id="edge21" class="edge">
<title>N1&#45;&gt;N20</title>
<g id="a_edge21"><a xlink:title="fmt.(*pp).printValue &#45;&gt; reflect.Value.Interface (4998347)">
<path fill="none" stroke="#b22600" stroke-width="3" d="M737,-492.82C737,-475.55 737,-450.89 737,-431.33"/>
<polygon fill="#b22600" stroke="#b22600" stroke-width="3" points="740.5,-431.06 737,-421.06 733.5,-431.06 740.5,-431.06"/>
</a>
</g>
<g id="a_edge21&#45;label"><a xlink:title="fmt.(*pp).printValue &#45;&gt; reflect.Value.Interface (4998347)">
<text text-anchor="middle" x="763" y="-463.8" font-family="Times,serif" font-size="14.00"> 4998347</text>
<text text-anchor="middle" x="763" y="-448.8" font-family="Times,serif" font-size="14.00"> (inline)</text>
</a>
</g>
</g>
<!-- N2 -->
<g id="node2" class="node">
<title>N2</title>
<g id="a_node2"><a xlink:title="net/http.(*conn).serve (11125770)">
<polygon fill="#edd5d5" stroke="#b20000" points="586,-1564.5 492,-1564.5 492,-1520.5 586,-1520.5 586,-1564.5"/>
<text text-anchor="middle" x="539" y="-1554.1" font-family="Times,serif" font-size="8.00">http</text>
<text text-anchor="middle" x="539" y="-1545.1" font-family="Times,serif" font-size="8.00">(*conn)</text>
<text text-anchor="middle" x="539" y="-1536.1" font-family="Times,serif" font-size="8.00">serve</text>
<text text-anchor="middle" x="539" y="-1527.1" font-family="Times,serif" font-size="8.00">0 of 11125770 (99.67%)</text>
</a>
</g>
</g>
<!-- N18 -->
<g id="node18" class="node">
<title>N18</title>
<g id="a_node18"><a xlink:title="net/http.serverHandler.ServeHTTP (11099822)">
<polygon fill="#edd5d5" stroke="#b20000" points="586,-1424 492,-1424 492,-1380 586,-1380 586,-1424"/>
<text text-anchor="middle" x="539" y="-1413.6" font-family="Times,serif" font-size="8.00">http</text>
<text text-anchor="middle" x="539" y="-1404.6" font-family="Times,serif" font-size="8.00">serverHandler</text>
<text text-anchor="middle" x="539" y="-1395.6" font-family="Times,serif" font-size="8.00">ServeHTTP</text>
<text text-anchor="middle" x="539" y="-1386.6" font-family="Times,serif" font-size="8.00">0 of 11099822 (99.43%)</text>
</a>
</g>
</g>
<!-- N2&#45;&gt;N18 -->
<g id="edge14" class="edge">
<title>N2&#45;&gt;N18</title>
<g id="a_edge14"><a xlink:title="net/http.(*conn).serve &#45;&gt; net/http.serverHandler.ServeHTTP (11099822)">
<path fill="none" stroke="#b20000" stroke-width="5" d="M539,-1520.46C539,-1497.59 539,-1460.77 539,-1434.45"/>
<polygon fill="#b20000" stroke="#b20000" stroke-width="5" points="543.38,-1434.23 539,-1424.23 534.63,-1434.23 543.38,-1434.23"/>
</a>
</g>
<g id="a_edge14&#45;label"><a xlink:title="net/http.(*conn).serve &#45;&gt; net/http.serverHandler.ServeHTTP (11099822)">
<text text-anchor="middle" x="568" y="-1445.8" font-family="Times,serif" font-size="14.00"> 11099822</text>
</a>
</g>
</g>
<!-- N3 -->
<g id="node3" class="node">
<title>N3</title>
<g id="a_node3"><a xlink:title="reflect.packEface (4998347)">
<polygon fill="#eddad5" stroke="#b22600" points="835.5,-173 638.5,-173 638.5,-87 835.5,-87 835.5,-173"/>
<text text-anchor="middle" x="737" y="-149.8" font-family="Times,serif" font-size="24.00">reflect</text>
<text text-anchor="middle" x="737" y="-123.8" font-family="Times,serif" font-size="24.00">packEface</text>
<text text-anchor="middle" x="737" y="-97.8" font-family="Times,serif" font-size="24.00">4998347 (44.78%)</text>
</a>
</g>
</g>
<!-- NN3_0 -->
<g id="NN3_0" class="node">
<title>NN3_0</title>
<g id="a_NN3_0"><a xlink:title="3178544">
<polygon fill="#f8f8f8" stroke="black" points="689,-36 639,-36 635,-32 635,0 685,0 689,-4 689,-36"/>
<polyline fill="none" stroke="black" points="685,-32 635,-32"/>
<polyline fill="none" stroke="black" points="685,-32 685,0"/>
<polyline fill="none" stroke="black" points="685,-32 689,-36"/>
<text text-anchor="middle" x="662" y="-16.1" font-family="Times,serif" font-size="8.00">16B</text>
</a>
</g>
</g>
<!-- N3&#45;&gt;NN3_0 -->
<g id="edge1" class="edge">
<title>N3&#45;&gt;NN3_0</title>
<g id="a_edge1"><a xlink:title="3178544">
<path fill="none" stroke="black" d="M693.89,-86.72C689.2,-81.02 684.77,-75.05 681,-69 676.63,-61.98 673,-53.8 670.13,-46.12"/>
<polygon fill="black" stroke="black" points="673.36,-44.74 666.79,-36.43 666.74,-47.03 673.36,-44.74"/>
</a>
</g>
<g id="a_edge1&#45;label"><a xlink:title="3178544">
<text text-anchor="middle" x="707" y="-57.8" font-family="Times,serif" font-size="14.00"> 3178544</text>
</a>
</g>
</g>
<!-- NN3_1 -->
<g id="NN3_1" class="node">
<title>NN3_1</title>
<g id="a_NN3_1"><a xlink:title="961216">
<polygon fill="#f8f8f8" stroke="black" points="764,-36 714,-36 710,-32 710,0 760,0 764,-4 764,-36"/>
<polyline fill="none" stroke="black" points="760,-32 710,-32"/>
<polyline fill="none" stroke="black" points="760,-32 760,0"/>
<polyline fill="none" stroke="black" points="760,-32 764,-36"/>
<text text-anchor="middle" x="737" y="-16.1" font-family="Times,serif" font-size="8.00">24B</text>
</a>
</g>
</g>
<!-- N3&#45;&gt;NN3_1 -->
<g id="edge2" class="edge">
<title>N3&#45;&gt;NN3_1</title>
<g id="a_edge2"><a xlink:title="961216">
<path fill="none" stroke="black" d="M737,-86.79C737,-73.2 737,-58.5 737,-46.28"/>
<polygon fill="black" stroke="black" points="740.5,-46.27 737,-36.27 733.5,-46.27 740.5,-46.27"/>
</a>
</g>
<g id="a_edge2&#45;label"><a xlink:title="961216">
<text text-anchor="middle" x="759.5" y="-57.8" font-family="Times,serif" font-size="14.00"> 961216</text>
</a>
</g>
</g>
<!-- NN3_2 -->
<g id="NN3_2" class="node">
<title>NN3_2</title>
<g id="a_NN3_2"><a xlink:title="858587">
<polygon fill="#f8f8f8" stroke="black" points="836,-36 786,-36 782,-32 782,0 832,0 836,-4 836,-36"/>
<polyline fill="none" stroke="black" points="832,-32 782,-32"/>
<polyline fill="none" stroke="black" points="832,-32 832,0"/>
<polyline fill="none" stroke="black" points="832,-32 836,-36"/>
<text text-anchor="middle" x="809" y="-16.1" font-family="Times,serif" font-size="8.00">80B</text>
</a>
</g>
</g>
<!-- N3&#45;&gt;NN3_2 -->
<g id="edge3" class="edge">
<title>N3&#45;&gt;NN3_2</title>
<g id="a_edge3"><a xlink:title="858587">
<path fill="none" stroke="black" d="M773.7,-86.72C778.08,-80.93 782.3,-74.93 786,-69 790.55,-61.7 794.75,-53.36 798.27,-45.6"/>
<polygon fill="black" stroke="black" points="801.58,-46.78 802.36,-36.22 795.16,-43.99 801.58,-46.78"/>
</a>
</g>
<g id="a_edge3&#45;label"><a xlink:title="858587">
<text text-anchor="middle" x="816.5" y="-57.8" font-family="Times,serif" font-size="14.00"> 858587</text>
</a>
</g>
</g>
<!-- N4 -->
<g id="node4" class="node">
<title>N4</title>
<g id="a_node4"><a xlink:title="main.handle (11099822)">
<polygon fill="#edd5d5" stroke="#b20000" points="628.5,-1139 449.5,-1139 449.5,-1051 628.5,-1051 628.5,-1139"/>
<text text-anchor="middle" x="539" y="-1120.6" font-family="Times,serif" font-size="18.00">main</text>
<text text-anchor="middle" x="539" y="-1100.6" font-family="Times,serif" font-size="18.00">handle</text>
<text text-anchor="middle" x="539" y="-1080.6" font-family="Times,serif" font-size="18.00">1634846 (14.65%)</text>
<text text-anchor="middle" x="539" y="-1060.6" font-family="Times,serif" font-size="18.00">of 11099822 (99.43%)</text>
</a>
</g>
</g>
<!-- NN4_0 -->
<g id="NN4_0" class="node">
<title>NN4_0</title>
<g id="a_NN4_0"><a xlink:title="812708">
<polygon fill="#f8f8f8" stroke="black" points="418,-1000 368,-1000 364,-996 364,-964 414,-964 418,-968 418,-1000"/>
<polyline fill="none" stroke="black" points="414,-996 364,-996"/>
<polyline fill="none" stroke="black" points="414,-996 414,-964"/>
<polyline fill="none" stroke="black" points="414,-996 418,-1000"/>
<text text-anchor="middle" x="391" y="-980.1" font-family="Times,serif" font-size="8.00">8B..128B</text>
</a>
</g>
</g>
<!-- N4&#45;&gt;NN4_0 -->
<g id="edge4" class="edge">
<title>N4&#45;&gt;NN4_0</title>
<g id="a_edge4"><a xlink:title="812708">
<path fill="none" stroke="black" d="M457.15,-1050.86C448.71,-1045.26 440.49,-1039.27 433,-1033 424.31,-1025.72 415.99,-1016.49 409.09,-1007.96"/>
<polygon fill="black" stroke="black" points="411.85,-1005.8 402.94,-1000.07 406.33,-1010.1 411.85,-1005.8"/>
</a>
</g>
<g id="a_edge4&#45;label"><a xlink:title="812708">
<text text-anchor="middle" x="455.5" y="-1021.8" font-family="Times,serif" font-size="14.00"> 812708</text>
</a>
</g>
</g>
<!-- NN4_1 -->
<g id="NN4_1" class="node">
<title>NN4_1</title>
<g id="a_NN4_1"><a xlink:title="346269">
<polygon fill="#f8f8f8" stroke="black" points="494,-1000 440,-1000 436,-996 436,-964 490,-964 494,-968 494,-1000"/>
<polyline fill="none" stroke="black" points="490,-996 436,-996"/>
<polyline fill="none" stroke="black" points="490,-996 490,-964"/>
<polyline fill="none" stroke="black" points="490,-996 494,-1000"/>
<text text-anchor="middle" x="465" y="-980.1" font-family="Times,serif" font-size="8.00">72kB..112kB</text>
</a>
</g>
</g>
<!-- N4&#45;&gt;NN4_1 -->
<g id="edge5" class="edge">
<title>N4&#45;&gt;NN4_1</title>
<g id="a_edge5"><a xlink:title="346269">
<path fill="none" stroke="black" d="M502.51,-1050.86C498.1,-1044.99 493.81,-1038.95 490,-1033 485.23,-1025.57 480.7,-1017.1 476.83,-1009.27"/>
<polygon fill="black" stroke="black" points="479.94,-1007.67 472.47,-1000.16 473.63,-1010.69 479.94,-1007.67"/>
</a>
</g>
<g id="a_edge5&#45;label"><a xlink:title="346269">
<text text-anchor="middle" x="512.5" y="-1021.8" font-family="Times,serif" font-size="14.00"> 346269</text>
</a>
</g>
</g>
<!-- NN4_2 -->
<g id="NN4_2" class="node">
<title>NN4_2</title>
<g id="a_NN4_2"><a xlink:title="172733">
<polygon fill="#f8f8f8" stroke="black" points="566,-1000 516,-1000 512,-996 512,-964 562,-964 566,-968 566,-1000"/>
<polyline fill="none" stroke="black" points="562,-996 512,-996"/>
<polyline fill="none" stroke="black" points="562,-996 562,-964"/>
<polyline fill="none" stroke="black" points="562,-996 566,-1000"/>
<text text-anchor="middle" x="539" y="-980.1" font-family="Times,serif" font-size="8.00">48kB..64kB</text>
</a>
</g>
</g>
<!-- N4&#45;&gt;NN4_2 -->
<g id="edge6" class="edge">
<title>N4&#45;&gt;NN4_2</title>
<g id="a_edge6"><a xlink:title="172733">
<path fill="none" stroke="black" d="M539,-1050.77C539,-1037.25 539,-1022.71 539,-1010.58"/>
<polygon fill="black" stroke="black" points="542.5,-1010.22 539,-1000.22 535.5,-1010.22 542.5,-1010.22"/>
</a>
</g>
<g id="a_edge6&#45;label"><a xlink:title="172733">
<text text-anchor="middle" x="561.5" y="-1021.8" font-family="Times,serif" font-size="14.00"> 172733</text>
</a>
</g>
</g>
<!-- NN4_3 -->
<g id="NN4_3" class="node">
<title>NN4_3</title>
<g id="a_NN4_3"><a xlink:title="58628">
<polygon fill="#f8f8f8" stroke="black" points="638,-1000 588,-1000 584,-996 584,-964 634,-964 638,-968 638,-1000"/>
<polyline fill="none" stroke="black" points="634,-996 584,-996"/>
<polyline fill="none" stroke="black" points="634,-996 634,-964"/>
<polyline fill="none" stroke="black" points="634,-996 638,-1000"/>
<text text-anchor="middle" x="611" y="-980.1" font-family="Times,serif" font-size="8.00">40kB</text>
</a>
</g>
</g>
<!-- N4&#45;&gt;NN4_3 -->
<g id="edge7" class="edge">
<title>N4&#45;&gt;NN4_3</title>
<g id="a_edge7"><a xlink:title="58628">
<path fill="none" stroke="black" d="M575.68,-1050.97C580.06,-1045.09 584.28,-1039.01 588,-1033 592.52,-1025.69 596.71,-1017.34 600.24,-1009.58"/>
<polygon fill="black" stroke="black" points="603.54,-1010.76 604.33,-1000.2 597.12,-1007.97 603.54,-1010.76"/>
</a>
</g>
<g id="a_edge7&#45;label"><a xlink:title="58628">
<text text-anchor="middle" x="615" y="-1021.8" font-family="Times,serif" font-size="14.00"> 58628</text>
</a>
</g>
</g>
<!-- N5 -->
<g id="node5" class="node">
<title>N5</title>
<g id="a_node5"><a xlink:title="fmt.Sprintf (9464464)">
<polygon fill="#edd6d5" stroke="#b20800" points="747,-927 601,-927 601,-851 747,-851 747,-927"/>
<text text-anchor="middle" x="674" y="-911" font-family="Times,serif" font-size="15.00">fmt</text>
<text text-anchor="middle" x="674" y="-894" font-family="Times,serif" font-size="15.00">Sprintf</text>
<text text-anchor="middle" x="674" y="-877" font-family="Times,serif" font-size="15.00">811107 (7.27%)</text>
<text text-anchor="middle" x="674" y="-860" font-family="Times,serif" font-size="15.00">of 9464464 (84.78%)</text>
</a>
</g>
</g>
<!-- N4&#45;&gt;N5 -->
<g id="edge17" class="edge">
<title>N4&#45;&gt;N5</title>
<g id="a_edge17"><a xlink:title="main.handle &#45;&gt; fmt.Sprintf (9464464)">
<path fill="none" stroke="#b20800" stroke-width="5" d="M621.17,-1050.81C627.42,-1045.4 633.16,-1039.47 638,-1033 658.65,-1005.4 667.54,-967.29 671.32,-937.34"/>
<polygon fill="#b20800" stroke="#b20800" stroke-width="5" points="675.7,-937.55 672.46,-927.12 667,-936.58 675.7,-937.55"/>
</a>
</g>
<g id="a_edge17&#45;label"><a xlink:title="main.handle &#45;&gt; fmt.Sprintf (9464464)">
<text text-anchor="middle" x="692" y="-978.3" font-family="Times,serif" font-size="14.00"> 9464464</text>
</a>
</g>
</g>
<!-- NN5_0 -->
<g id="NN5_0" class="node">
<title>NN5_0</title>
<g id="a_NN5_0"><a xlink:title="811107">
<polygon fill="#f8f8f8" stroke="black" points="701,-800 651,-800 647,-796 647,-764 697,-764 701,-768 701,-800"/>
<polyline fill="none" stroke="black" points="697,-796 647,-796"/>
<polyline fill="none" stroke="black" points="697,-796 697,-764"/>
<polyline fill="none" stroke="black" points="697,-796 701,-800"/>
<text text-anchor="middle" x="674" y="-780.1" font-family="Times,serif" font-size="8.00">128B</text>
</a>
</g>
</g>
<!-- N5&#45;&gt;NN5_0 -->
<g id="edge8" class="edge">
<title>N5&#45;&gt;NN5_0</title>
<g id="a_edge8"><a xlink:title="811107">
<path fill="none" stroke="black" d="M674,-850.98C674,-837.56 674,-822.65 674,-810.22"/>
<polygon fill="black" stroke="black" points="677.5,-810.04 674,-800.04 670.5,-810.04 677.5,-810.04"/>
</a>
</g>
<g id="a_edge8&#45;label"><a xlink:title="811107">
<text text-anchor="middle" x="696.5" y="-821.8" font-family="Times,serif" font-size="14.00"> 811107</text>
</a>
</g>
</g>
<!-- N12 -->
<g id="node12" class="node">
<title>N12</title>
<g id="a_node12"><a xlink:title="fmt.(*pp).doPrintf (8549682)">
<polygon fill="#edd7d5" stroke="#b20d00" points="782,-727 692,-727 692,-683 782,-683 782,-727"/>
<text text-anchor="middle" x="737" y="-716.6" font-family="Times,serif" font-size="8.00">fmt</text>
<text text-anchor="middle" x="737" y="-707.6" font-family="Times,serif" font-size="8.00">(*pp)</text>
<text text-anchor="middle" x="737" y="-698.6" font-family="Times,serif" font-size="8.00">doPrintf</text>
<text text-anchor="middle" x="737" y="-689.6" font-family="Times,serif" font-size="8.00">0 of 8549682 (76.59%)</text>
</a>
</g>
</g>
<!-- N5&#45;&gt;N12 -->
<g id="edge20" class="edge">
<title>N5&#45;&gt;N12</title>
<g id="a_edge20"><a xlink:title="fmt.Sprintf &#45;&gt; fmt.(*pp).doPrintf (8549682)">
<path fill="none" stroke="#b20d00" stroke-width="4" d="M712.37,-850.78C716.53,-845.18 720.24,-839.19 723,-833 736.56,-802.54 739.02,-764.07 738.74,-737.5"/>
<polygon fill="#b20d00" stroke="#b20d00" stroke-width="4" points="742.24,-737.16 738.5,-727.24 735.24,-737.33 742.24,-737.16"/>
</a>
</g>
<g id="a_edge20&#45;label"><a xlink:title="fmt.Sprintf &#45;&gt; fmt.(*pp).doPrintf (8549682)">
<text text-anchor="middle" x="764" y="-778.3" font-family="Times,serif" font-size="14.00"> 8549682</text>
</a>
</g>
</g>
<!-- N15 -->
<g id="node15" class="node">
<title>N15</title>
<g id="a_node15"><a xlink:title="fmt.newPrinter (94970)">
<polygon fill="#edecec" stroke="#b2b0aa" points="879.5,-723 800.5,-723 800.5,-687 879.5,-687 879.5,-723"/>
<text text-anchor="middle" x="840" y="-712.1" font-family="Times,serif" font-size="8.00">fmt</text>
<text text-anchor="middle" x="840" y="-703.1" font-family="Times,serif" font-size="8.00">newPrinter</text>
<text text-anchor="middle" x="840" y="-694.1" font-family="Times,serif" font-size="8.00">0 of 94970 (0.85%)</text>
</a>
</g>
</g>
<!-- N5&#45;&gt;N15 -->
<g id="edge28" class="edge">
<title>N5&#45;&gt;N15</title>
<g id="a_edge28"><a xlink:title="fmt.Sprintf &#45;&gt; fmt.newPrinter (94970)">
<path fill="none" stroke="#b2b0aa" d="M736.45,-850.79C756.58,-836.69 777.84,-819.32 794,-800 810.85,-779.85 823.34,-752.48 831.02,-732.47"/>
<polygon fill="#b2b0aa" stroke="#b2b0aa" points="834.33,-733.62 834.5,-723.03 827.76,-731.2 834.33,-733.62"/>
</a>
</g>
<g id="a_edge28&#45;label"><a xlink:title="fmt.Sprintf &#45;&gt; fmt.newPrinter (94970)">
<text text-anchor="middle" x="835" y="-778.3" font-family="Times,serif" font-size="14.00"> 94970</text>
</a>
</g>
</g>
<!-- N6 -->
<g id="node6" class="node">
<title>N6</title>
<g id="a_node6"><a xlink:title="reflect.(*structType).Field (2392100)">
<polygon fill="#edded5" stroke="#b24200" points="674,-320 510,-320 510,-224 674,-224 674,-320"/>
<text text-anchor="middle" x="592" y="-300" font-family="Times,serif" font-size="20.00">reflect</text>
<text text-anchor="middle" x="592" y="-278" font-family="Times,serif" font-size="20.00">(*structType)</text>
<text text-anchor="middle" x="592" y="-256" font-family="Times,serif" font-size="20.00">Field</text>
<text text-anchor="middle" x="592" y="-234" font-family="Times,serif" font-size="20.00">2392100 (21.43%)</text>
</a>
</g>
</g>
<!-- NN6_0 -->
<g id="NN6_0" class="node">
<title>NN6_0</title>
<g id="a_NN6_0"><a xlink:title="2392100">
<polygon fill="#f8f8f8" stroke="black" points="619,-148 569,-148 565,-144 565,-112 615,-112 619,-116 619,-148"/>
<polyline fill="none" stroke="black" points="615,-144 565,-144"/>
<polyline fill="none" stroke="black" points="615,-144 615,-112"/>
<polyline fill="none" stroke="black" points="615,-144 619,-148"/>
<text text-anchor="middle" x="592" y="-128.1" font-family="Times,serif" font-size="8.00">16B</text>
</a>
</g>
</g>
<!-- N6&#45;&gt;NN6_0 -->
<g id="edge9" class="edge">
<title>N6&#45;&gt;NN6_0</title>
<g id="a_edge9"><a xlink:title="2392100">
<path fill="none" stroke="black" d="M592,-223.99C592,-202.21 592,-177.09 592,-158.45"/>
<polygon fill="black" stroke="black" points="595.5,-158.3 592,-148.3 588.5,-158.3 595.5,-158.3"/>
</a>
</g>
<g id="a_edge9&#45;label"><a xlink:title="2392100">
<text text-anchor="middle" x="618" y="-194.8" font-family="Times,serif" font-size="14.00"> 2392100</text>
</a>
</g>
</g>
<!-- N7 -->
<g id="node7" class="node">
<title>N7</title>
<g id="a_node7"><a xlink:title="time.Time.GoString (1040447)">
<polygon fill="#ede7e2" stroke="#b2895f" points="491.5,-312 360.5,-312 360.5,-232 491.5,-232 491.5,-312"/>
<text text-anchor="middle" x="426" y="-295.2" font-family="Times,serif" font-size="16.00">time</text>
<text text-anchor="middle" x="426" y="-277.2" font-family="Times,serif" font-size="16.00">Time</text>
<text text-anchor="middle" x="426" y="-259.2" font-family="Times,serif" font-size="16.00">GoString</text>
<text text-anchor="middle" x="426" y="-241.2" font-family="Times,serif" font-size="16.00">1040447 (9.32%)</text>
</a>
</g>
</g>
<!-- NN7_0 -->
<g id="NN7_0" class="node">
<title>NN7_0</title>
<g id="a_NN7_0"><a xlink:title="1040447">
<polygon fill="#f8f8f8" stroke="black" points="453,-148 403,-148 399,-144 399,-112 449,-112 453,-116 453,-148"/>
<polyline fill="none" stroke="black" points="449,-144 399,-144"/>
<polyline fill="none" stroke="black" points="449,-144 449,-112"/>
<polyline fill="none" stroke="black" points="449,-144 453,-148"/>
<text text-anchor="middle" x="426" y="-128.1" font-family="Times,serif" font-size="8.00">64B</text>
</a>
</g>
</g>
<!-- N7&#45;&gt;NN7_0 -->
<g id="edge10" class="edge">
<title>N7&#45;&gt;NN7_0</title>
<g id="a_edge10"><a xlink:title="1040447">
<path fill="none" stroke="black" d="M426,-231.63C426,-208.21 426,-179.1 426,-158.22"/>
<polygon fill="black" stroke="black" points="429.5,-158.13 426,-148.13 422.5,-158.13 429.5,-158.13"/>
</a>
</g>
<g id="a_edge10&#45;label"><a xlink:title="1040447">
<text text-anchor="middle" x="452" y="-194.8" font-family="Times,serif" font-size="14.00"> 1040447</text>
</a>
</g>
</g>
<!-- N8 -->
<g id="node8" class="node">
<title>N8</title>
<g id="a_node8"><a xlink:title="sync.(*Pool).pinSlow (83983)">
<polygon fill="#edecec" stroke="#b2b0ab" points="881.5,-427 800.5,-427 800.5,-371 881.5,-371 881.5,-427"/>
<text text-anchor="middle" x="841" y="-414.2" font-family="Times,serif" font-size="11.00">sync</text>
<text text-anchor="middle" x="841" y="-402.2" font-family="Times,serif" font-size="11.00">(*Pool)</text>
<text text-anchor="middle" x="841" y="-390.2" font-family="Times,serif" font-size="11.00">pinSlow</text>
<text text-anchor="middle" x="841" y="-378.2" font-family="Times,serif" font-size="11.00">83983 (0.75%)</text>
</a>
</g>
</g>
<!-- NN8_0 -->
<g id="NN8_0" class="node">
<title>NN8_0</title>
<g id="a_NN8_0"><a xlink:title="65536">
<polygon fill="#f8f8f8" stroke="black" points="868,-290 818,-290 814,-286 814,-254 864,-254 868,-258 868,-290"/>
<polyline fill="none" stroke="black" points="864,-286 814,-286"/>
<polyline fill="none" stroke="black" points="864,-286 864,-254"/>
<polyline fill="none" stroke="black" points="864,-286 868,-290"/>
<text text-anchor="middle" x="841" y="-270.1" font-family="Times,serif" font-size="8.00">8B</text>
</a>
</g>
</g>
<!-- N8&#45;&gt;NN8_0 -->
<g id="edge11" class="edge">
<title>N8&#45;&gt;NN8_0</title>
<g id="a_edge11"><a xlink:title="65536">
<path fill="none" stroke="black" d="M841,-370.88C841,-349.97 841,-321.17 841,-300.24"/>
<polygon fill="black" stroke="black" points="844.5,-300.08 841,-290.08 837.5,-300.08 844.5,-300.08"/>
</a>
</g>
<g id="a_edge11&#45;label"><a xlink:title="65536">
<text text-anchor="middle" x="860" y="-341.8" font-family="Times,serif" font-size="14.00"> 65536</text>
</a>
</g>
</g>
<!-- NN9_0 -->
<g id="NN9_0" class="node">
<title>NN9_0</title>
<g id="a_NN9_0"><a xlink:title="65537">
<polygon fill="#f8f8f8" stroke="black" points="342,-290 292,-290 288,-286 288,-254 338,-254 342,-258 342,-290"/>
<polyline fill="none" stroke="black" points="338,-286 288,-286"/>
<polyline fill="none" stroke="black" points="338,-286 338,-254"/>
<polyline fill="none" stroke="black" points="338,-286 342,-290"/>
<text text-anchor="middle" x="315" y="-270.1" font-family="Times,serif" font-size="8.00">16B</text>
</a>
</g>
</g>
<!-- N9&#45;&gt;NN9_0 -->
<g id="edge12" class="edge">
<title>N9&#45;&gt;NN9_0</title>
<g id="a_edge12"><a xlink:title="65537">
<path fill="none" stroke="black" d="M315,-372.7C315,-351.71 315,-321.91 315,-300.37"/>
<polygon fill="black" stroke="black" points="318.5,-300.23 315,-290.23 311.5,-300.23 318.5,-300.23"/>
</a>
</g>
<g id="a_edge12&#45;label"><a xlink:title="65537">
<text text-anchor="middle" x="334" y="-341.8" font-family="Times,serif" font-size="14.00"> 65537</text>
</a>
</g>
</g>
<!-- N10 -->
<g id="node10" class="node">
<title>N10</title>
<g id="a_node10"><a xlink:title="sync.(*Pool).Get (98556)">
<polygon fill="#edecec" stroke="#b2b0aa" points="879.5,-632 800.5,-632 800.5,-588 879.5,-588 879.5,-632"/>
<text text-anchor="middle" x="840" y="-621.6" font-family="Times,serif" font-size="8.00">sync</text>
<text text-anchor="middle" x="840" y="-612.6" font-family="Times,serif" font-size="8.00">(*Pool)</text>
<text text-anchor="middle" x="840" y="-603.6" font-family="Times,serif" font-size="8.00">Get</text>
<text text-anchor="middle" x="840" y="-594.6" font-family="Times,serif" font-size="8.00">0 of 98556 (0.88%)</text>
</a>
</g>
</g>
<!-- N11 -->
<g id="node11" class="node">
<title>N11</title>
<g id="a_node11"><a xlink:title="sync.(*Pool).pin (83983)">
<polygon fill="#edecec" stroke="#b2b0ab" points="879.5,-537 800.5,-537 800.5,-493 879.5,-493 879.5,-537"/>
<text text-anchor="middle" x="840" y="-526.6" font-family="Times,serif" font-size="8.00">sync</text>
<text text-anchor="middle" x="840" y="-517.6" font-family="Times,serif" font-size="8.00">(*Pool)</text>
<text text-anchor="middle" x="840" y="-508.6" font-family="Times,serif" font-size="8.00">pin</text>
<text text-anchor="middle" x="840" y="-499.6" font-family="Times,serif" font-size="8.00">0 of 83983 (0.75%)</text>
</a>
</g>
</g>
<!-- N10&#45;&gt;N11 -->
<g id="edge31" class="edge">
<title>N10&#45;&gt;N11</title>
<g id="a_edge31"><a xlink:title="sync.(*Pool).Get &#45;&gt; sync.(*Pool).pin (80909)">
<path fill="none" stroke="#b2b1ac" d="M840,-587.9C840,-575.89 840,-560.62 840,-547.24"/>
<polygon fill="#b2b1ac" stroke="#b2b1ac" points="843.5,-547.02 840,-537.02 836.5,-547.02 843.5,-547.02"/>
</a>
</g>
<g id="a_edge31&#45;label"><a xlink:title="sync.(*Pool).Get &#45;&gt; sync.(*Pool).pin (80909)">
<text text-anchor="middle" x="859" y="-558.8" font-family="Times,serif" font-size="14.00"> 80909</text>
</a>
</g>
</g>
<!-- N11&#45;&gt;N8 -->
<g id="edge30" class="edge">
<title>N11&#45;&gt;N8</title>
<g id="a_edge30"><a xlink:title="sync.(*Pool).pin &#45;&gt; sync.(*Pool).pinSlow (83983)">
<path fill="none" stroke="#b2b0ab" d="M840.19,-492.82C840.32,-477.25 840.51,-455.67 840.67,-437.24"/>
<polygon fill="#b2b0ab" stroke="#b2b0ab" points="844.17,-437.14 840.76,-427.11 837.17,-437.08 844.17,-437.14"/>
</a>
</g>
<g id="a_edge30&#45;label"><a xlink:title="sync.(*Pool).pin &#45;&gt; sync.(*Pool).pinSlow (83983)">
<text text-anchor="middle" x="859" y="-456.3" font-family="Times,serif" font-size="14.00"> 83983</text>
</a>
</g>
</g>
<!-- N14 -->
<g id="node14" class="node">
<title>N14</title>
<g id="a_node14"><a xlink:title="fmt.(*pp).printArg (8549682)">
<polygon fill="#edd7d5" stroke="#b20d00" points="782,-632 692,-632 692,-588 782,-588 782,-632"/>
<text text-anchor="middle" x="737" y="-621.6" font-family="Times,serif" font-size="8.00">fmt</text>
<text text-anchor="middle" x="737" y="-612.6" font-family="Times,serif" font-size="8.00">(*pp)</text>
<text text-anchor="middle" x="737" y="-603.6" font-family="Times,serif" font-size="8.00">printArg</text>
<text text-anchor="middle" x="737" y="-594.6" font-family="Times,serif" font-size="8.00">0 of 8549682 (76.59%)</text>
</a>
</g>
</g>
<!-- N12&#45;&gt;N14 -->
<g id="edge18" class="edge">
<title>N12&#45;&gt;N14</title>
<g id="a_edge18"><a xlink:title="fmt.(*pp).doPrintf &#45;&gt; fmt.(*pp).printArg (8549682)">
<path fill="none" stroke="#b20d00" stroke-width="4" d="M737,-682.9C737,-670.89 737,-655.62 737,-642.24"/>
<polygon fill="#b20d00" stroke="#b20d00" stroke-width="4" points="740.5,-642.02 737,-632.02 733.5,-642.02 740.5,-642.02"/>
</a>
</g>
<g id="a_edge18&#45;label"><a xlink:title="fmt.(*pp).doPrintf &#45;&gt; fmt.(*pp).printArg (8549682)">
<text text-anchor="middle" x="763" y="-653.8" font-family="Times,serif" font-size="14.00"> 8549682</text>
</a>
</g>
</g>
<!-- N13&#45;&gt;N7 -->
<g id="edge26" class="edge">
<title>N13&#45;&gt;N7</title>
<g id="a_edge26"><a xlink:title="fmt.(*pp).handleMethods &#45;&gt; time.Time.GoString (1040447)">
<path fill="none" stroke="#b2895f" d="M451.74,-376.8C448,-361.73 442.83,-340.87 438.1,-321.8"/>
<polygon fill="#b2895f" stroke="#b2895f" points="441.48,-320.89 435.68,-312.03 434.69,-322.58 441.48,-320.89"/>
</a>
</g>
<g id="a_edge26&#45;label"><a xlink:title="fmt.(*pp).handleMethods &#45;&gt; time.Time.GoString (1040447)">
<text text-anchor="middle" x="472" y="-341.8" font-family="Times,serif" font-size="14.00"> 1040447</text>
</a>
</g>
</g>
<!-- N14&#45;&gt;N1 -->
<g id="edge19" class="edge">
<title>N14&#45;&gt;N1</title>
<g id="a_edge19"><a xlink:title="fmt.(*pp).printArg &#45;&gt; fmt.(*pp).printValue (8549682)">
<path fill="none" stroke="#b20d00" stroke-width="4" d="M737,-587.9C737,-575.89 737,-560.62 737,-547.24"/>
<polygon fill="#b20d00" stroke="#b20d00" stroke-width="4" points="740.5,-547.02 737,-537.02 733.5,-547.02 740.5,-547.02"/>
</a>
</g>
<g id="a_edge19&#45;label"><a xlink:title="fmt.(*pp).printArg &#45;&gt; fmt.(*pp).printValue (8549682)">
<text text-anchor="middle" x="763" y="-558.8" font-family="Times,serif" font-size="14.00"> 8549682</text>
</a>
</g>
</g>
<!-- N15&#45;&gt;N10 -->
<g id="edge29" class="edge">
<title>N15&#45;&gt;N10</title>
<g id="a_edge29"><a xlink:title="fmt.newPrinter &#45;&gt; sync.(*Pool).Get (94970)">
<path fill="none" stroke="#b2b0aa" d="M840,-686.94C840,-674.54 840,-657.38 840,-642.51"/>
<polygon fill="#b2b0aa" stroke="#b2b0aa" points="843.5,-642.19 840,-632.19 836.5,-642.19 843.5,-642.19"/>
</a>
</g>
<g id="a_edge29&#45;label"><a xlink:title="fmt.newPrinter &#45;&gt; sync.(*Pool).Get (94970)">
<text text-anchor="middle" x="859" y="-653.8" font-family="Times,serif" font-size="14.00"> 94970</text>
</a>
</g>
</g>
<!-- N16 -->
<g id="node16" class="node">
<title>N16</title>
<g id="a_node16"><a xlink:title="net/http.(*ServeMux).ServeHTTP (11099822)">
<polygon fill="#edd5d5" stroke="#b20000" points="586,-1329 492,-1329 492,-1285 586,-1285 586,-1329"/>
<text text-anchor="middle" x="539" y="-1318.6" font-family="Times,serif" font-size="8.00">http</text>
<text text-anchor="middle" x="539" y="-1309.6" font-family="Times,serif" font-size="8.00">(*ServeMux)</text>
<text text-anchor="middle" x="539" y="-1300.6" font-family="Times,serif" font-size="8.00">ServeHTTP</text>
<text text-anchor="middle" x="539" y="-1291.6" font-family="Times,serif" font-size="8.00">0 of 11099822 (99.43%)</text>
</a>
</g>
</g>
<!-- N17 -->
<g id="node17" class="node">
<title>N17</title>
<g id="a_node17"><a xlink:title="net/http.HandlerFunc.ServeHTTP (11099822)">
<polygon fill="#edd5d5" stroke="#b20000" points="586,-1234 492,-1234 492,-1190 586,-1190 586,-1234"/>
<text text-anchor="middle" x="539" y="-1223.6" font-family="Times,serif" font-size="8.00">http</text>
<text text-anchor="middle" x="539" y="-1214.6" font-family="Times,serif" font-size="8.00">HandlerFunc</text>
<text text-anchor="middle" x="539" y="-1205.6" font-family="Times,serif" font-size="8.00">ServeHTTP</text>
<text text-anchor="middle" x="539" y="-1196.6" font-family="Times,serif" font-size="8.00">0 of 11099822 (99.43%)</text>
</a>
</g>
</g>
<!-- N16&#45;&gt;N17 -->
<g id="edge13" class="edge">
<title>N16&#45;&gt;N17</title>
<g id="a_edge13"><a xlink:title="net/http.(*ServeMux).ServeHTTP &#45;&gt; net/http.HandlerFunc.ServeHTTP (11099822)">
<path fill="none" stroke="#b20000" stroke-width="5" d="M539,-1284.9C539,-1272.89 539,-1257.62 539,-1244.24"/>
<polygon fill="#b20000" stroke="#b20000" stroke-width="5" points="543.38,-1244.02 539,-1234.02 534.63,-1244.02 543.38,-1244.02"/>
</a>
</g>
<g id="a_edge13&#45;label"><a xlink:title="net/http.(*ServeMux).ServeHTTP &#45;&gt; net/http.HandlerFunc.ServeHTTP (11099822)">
<text text-anchor="middle" x="568" y="-1255.8" font-family="Times,serif" font-size="14.00"> 11099822</text>
</a>
</g>
</g>
<!-- N17&#45;&gt;N4 -->
<g id="edge15" class="edge">
<title>N17&#45;&gt;N4</title>
<g id="a_edge15"><a xlink:title="net/http.HandlerFunc.ServeHTTP &#45;&gt; main.handle (11099822)">
<path fill="none" stroke="#b20000" stroke-width="5" d="M539,-1189.91C539,-1178.53 539,-1163.93 539,-1149.64"/>
<polygon fill="#b20000" stroke="#b20000" stroke-width="5" points="543.38,-1149.35 539,-1139.35 534.63,-1149.35 543.38,-1149.35"/>
</a>
</g>
<g id="a_edge15&#45;label"><a xlink:title="net/http.HandlerFunc.ServeHTTP &#45;&gt; main.handle (11099822)">
<text text-anchor="middle" x="568" y="-1160.8" font-family="Times,serif" font-size="14.00"> 11099822</text>
</a>
</g>
</g>
<!-- N18&#45;&gt;N16 -->
<g id="edge16" class="edge">
<title>N18&#45;&gt;N16</title>
<g id="a_edge16"><a xlink:title="net/http.serverHandler.ServeHTTP &#45;&gt; net/http.(*ServeMux).ServeHTTP (11099822)">
<path fill="none" stroke="#b20000" stroke-width="5" d="M539,-1379.9C539,-1367.89 539,-1352.62 539,-1339.24"/>
<polygon fill="#b20000" stroke="#b20000" stroke-width="5" points="543.38,-1339.02 539,-1329.02 534.63,-1339.02 543.38,-1339.02"/>
</a>
</g>
<g id="a_edge16&#45;label"><a xlink:title="net/http.serverHandler.ServeHTTP &#45;&gt; net/http.(*ServeMux).ServeHTTP (11099822)">
<text text-anchor="middle" x="568" y="-1350.8" font-family="Times,serif" font-size="14.00"> 11099822</text>
</a>
</g>
</g>
<!-- N19&#45;&gt;N6 -->
<g id="edge25" class="edge">
<title>N19&#45;&gt;N6</title>
<g id="a_edge25"><a xlink:title="reflect.(*rtype).Field &#45;&gt; reflect.(*structType).Field (2392100)">
<path fill="none" stroke="#b24200" stroke-width="2" d="M607.78,-376.8C605.82,-363.93 603.22,-346.84 600.7,-330.25"/>
<polygon fill="#b24200" stroke="#b24200" stroke-width="2" points="604.11,-329.39 599.15,-320.03 597.19,-330.44 604.11,-329.39"/>
</a>
</g>
<g id="a_edge25&#45;label"><a xlink:title="reflect.(*rtype).Field &#45;&gt; reflect.(*structType).Field (2392100)">
<text text-anchor="middle" x="629" y="-341.8" font-family="Times,serif" font-size="14.00"> 2392100</text>
</a>
</g>
</g>
<!-- N21 -->
<g id="node21" class="node">
<title>N21</title>
<g id="a_node21"><a xlink:title="reflect.valueInterface (4998347)">
<polygon fill="#eddad5" stroke="#b22600" points="782,-290 692,-290 692,-254 782,-254 782,-290"/>
<text text-anchor="middle" x="737" y="-279.1" font-family="Times,serif" font-size="8.00">reflect</text>
<text text-anchor="middle" x="737" y="-270.1" font-family="Times,serif" font-size="8.00">valueInterface</text>
<text text-anchor="middle" x="737" y="-261.1" font-family="Times,serif" font-size="8.00">0 of 4998347 (44.78%)</text>
</a>
</g>
</g>
<!-- N20&#45;&gt;N21 -->
<g id="edge22" class="edge">
<title>N20&#45;&gt;N21</title>
<g id="a_edge22"><a xlink:title="reflect.Value.Interface &#45;&gt; reflect.valueInterface (4998347)">
<path fill="none" stroke="#b22600" stroke-width="3" d="M737,-376.8C737,-355.75 737,-323.4 737,-300.41"/>
<polygon fill="#b22600" stroke="#b22600" stroke-width="3" points="740.5,-300.28 737,-290.28 733.5,-300.28 740.5,-300.28"/>
</a>
</g>
<g id="a_edge22&#45;label"><a xlink:title="reflect.Value.Interface &#45;&gt; reflect.valueInterface (4998347)">
<text text-anchor="middle" x="763" y="-341.8" font-family="Times,serif" font-size="14.00"> 4998347</text>
</a>
</g>
</g>
<!-- N21&#45;&gt;N3 -->
<g id="edge23" class="edge">
<title>N21&#45;&gt;N3</title>
<g id="a_edge23"><a xlink:title="reflect.valueInterface &#45;&gt; reflect.packEface (4998347)">
<path fill="none" stroke="#b22600" stroke-width="3" d="M737,-253.83C737,-236.31 737,-208.24 737,-183.35"/>
<polygon fill="#b22600" stroke="#b22600" stroke-width="3" points="740.5,-183.28 737,-173.28 733.5,-183.28 740.5,-183.28"/>
</a>
</g>
<g id="a_edge23&#45;label"><a xlink:title="reflect.valueInterface &#45;&gt; reflect.packEface (4998347)">
<text text-anchor="middle" x="763" y="-194.8" font-family="Times,serif" font-size="14.00"> 4998347</text>
</a>
</g>
</g>
</g>
</g></svg>
